<mxfile host="app.diagrams.net" modified="2023-06-24T13:21:13.720Z" agent="Mozilla/5.0 (Windows NT 10.0; Win64; x64) AppleWebKit/537.36 (KHTML, like Gecko) Chrome/114.0.0.0 Safari/537.36" etag="DTZnFj7lBE4xVcTrNYez" version="21.1.6" type="github">
  <diagram name="Page-1" id="SxHQIcBQqMFaZEV1XY9a">
    <mxGraphModel dx="1434" dy="748" grid="1" gridSize="10" guides="1" tooltips="1" connect="1" arrows="1" fold="1" page="1" pageScale="1" pageWidth="850" pageHeight="1100" math="0" shadow="0">
      <root>
        <mxCell id="0" />
        <mxCell id="1" parent="0" />
        <mxCell id="td1JjDbZRhZ5KsccJFVq-1" value="" style="whiteSpace=wrap;html=1;aspect=fixed;" vertex="1" parent="1">
          <mxGeometry x="385" y="140" width="110" height="110" as="geometry" />
        </mxCell>
        <mxCell id="td1JjDbZRhZ5KsccJFVq-2" value="Juniper 1" style="rounded=0;whiteSpace=wrap;html=1;" vertex="1" parent="1">
          <mxGeometry x="400" y="150" width="80" height="40" as="geometry" />
        </mxCell>
        <mxCell id="td1JjDbZRhZ5KsccJFVq-3" value="Juniper 2" style="rounded=0;whiteSpace=wrap;html=1;" vertex="1" parent="1">
          <mxGeometry x="400" y="200" width="80" height="40" as="geometry" />
        </mxCell>
        <mxCell id="td1JjDbZRhZ5KsccJFVq-23" style="edgeStyle=orthogonalEdgeStyle;rounded=0;orthogonalLoop=1;jettySize=auto;html=1;entryX=0;entryY=0.25;entryDx=0;entryDy=0;" edge="1" parent="1" target="td1JjDbZRhZ5KsccJFVq-1">
          <mxGeometry relative="1" as="geometry">
            <mxPoint x="250" y="380" as="sourcePoint" />
            <Array as="points">
              <mxPoint x="250" y="368" />
              <mxPoint x="250" y="168" />
            </Array>
          </mxGeometry>
        </mxCell>
        <mxCell id="td1JjDbZRhZ5KsccJFVq-25" style="edgeStyle=orthogonalEdgeStyle;rounded=0;orthogonalLoop=1;jettySize=auto;html=1;entryX=0.25;entryY=1;entryDx=0;entryDy=0;" edge="1" parent="1" source="td1JjDbZRhZ5KsccJFVq-4" target="td1JjDbZRhZ5KsccJFVq-1">
          <mxGeometry relative="1" as="geometry" />
        </mxCell>
        <mxCell id="td1JjDbZRhZ5KsccJFVq-4" value="" style="whiteSpace=wrap;html=1;aspect=fixed;movable=1;resizable=1;rotatable=1;deletable=1;editable=1;locked=0;connectable=1;" vertex="1" parent="1">
          <mxGeometry x="225" y="360" width="110" height="110" as="geometry" />
        </mxCell>
        <mxCell id="td1JjDbZRhZ5KsccJFVq-24" style="edgeStyle=orthogonalEdgeStyle;rounded=0;orthogonalLoop=1;jettySize=auto;html=1;entryX=0;entryY=0.5;entryDx=0;entryDy=0;" edge="1" parent="1" source="td1JjDbZRhZ5KsccJFVq-5" target="td1JjDbZRhZ5KsccJFVq-1">
          <mxGeometry relative="1" as="geometry">
            <Array as="points">
              <mxPoint x="280" y="195" />
            </Array>
          </mxGeometry>
        </mxCell>
        <mxCell id="td1JjDbZRhZ5KsccJFVq-5" value="H3C 1" style="rounded=0;whiteSpace=wrap;html=1;movable=1;resizable=1;rotatable=1;deletable=1;editable=1;locked=0;connectable=1;" vertex="1" parent="1">
          <mxGeometry x="240" y="370" width="80" height="40" as="geometry" />
        </mxCell>
        <mxCell id="td1JjDbZRhZ5KsccJFVq-26" style="edgeStyle=orthogonalEdgeStyle;rounded=0;orthogonalLoop=1;jettySize=auto;html=1;" edge="1" parent="1" source="td1JjDbZRhZ5KsccJFVq-6" target="td1JjDbZRhZ5KsccJFVq-1">
          <mxGeometry relative="1" as="geometry" />
        </mxCell>
        <mxCell id="td1JjDbZRhZ5KsccJFVq-6" value="H3C 2" style="rounded=0;whiteSpace=wrap;html=1;movable=1;resizable=1;rotatable=1;deletable=1;editable=1;locked=0;connectable=1;" vertex="1" parent="1">
          <mxGeometry x="240" y="420" width="80" height="40" as="geometry" />
        </mxCell>
        <mxCell id="td1JjDbZRhZ5KsccJFVq-27" style="edgeStyle=orthogonalEdgeStyle;rounded=0;orthogonalLoop=1;jettySize=auto;html=1;entryX=0.75;entryY=1;entryDx=0;entryDy=0;" edge="1" parent="1" source="td1JjDbZRhZ5KsccJFVq-7" target="td1JjDbZRhZ5KsccJFVq-1">
          <mxGeometry relative="1" as="geometry">
            <Array as="points">
              <mxPoint x="468" y="440" />
            </Array>
          </mxGeometry>
        </mxCell>
        <mxCell id="td1JjDbZRhZ5KsccJFVq-28" style="edgeStyle=orthogonalEdgeStyle;rounded=0;orthogonalLoop=1;jettySize=auto;html=1;exitX=0;exitY=0.25;exitDx=0;exitDy=0;entryX=0.927;entryY=1.027;entryDx=0;entryDy=0;entryPerimeter=0;" edge="1" parent="1" source="td1JjDbZRhZ5KsccJFVq-7" target="td1JjDbZRhZ5KsccJFVq-1">
          <mxGeometry relative="1" as="geometry">
            <Array as="points">
              <mxPoint x="550" y="415" />
              <mxPoint x="487" y="415" />
            </Array>
          </mxGeometry>
        </mxCell>
        <mxCell id="td1JjDbZRhZ5KsccJFVq-7" value="" style="whiteSpace=wrap;html=1;aspect=fixed;movable=1;resizable=1;rotatable=1;deletable=1;editable=1;locked=0;connectable=1;" vertex="1" parent="1">
          <mxGeometry x="550" y="360" width="110" height="110" as="geometry" />
        </mxCell>
        <mxCell id="td1JjDbZRhZ5KsccJFVq-29" style="edgeStyle=orthogonalEdgeStyle;rounded=0;orthogonalLoop=1;jettySize=auto;html=1;entryX=1;entryY=0.5;entryDx=0;entryDy=0;" edge="1" parent="1" source="td1JjDbZRhZ5KsccJFVq-8" target="td1JjDbZRhZ5KsccJFVq-1">
          <mxGeometry relative="1" as="geometry">
            <Array as="points">
              <mxPoint x="605" y="195" />
            </Array>
          </mxGeometry>
        </mxCell>
        <mxCell id="td1JjDbZRhZ5KsccJFVq-30" style="edgeStyle=orthogonalEdgeStyle;rounded=0;orthogonalLoop=1;jettySize=auto;html=1;entryX=1.009;entryY=0.155;entryDx=0;entryDy=0;entryPerimeter=0;" edge="1" parent="1" source="td1JjDbZRhZ5KsccJFVq-8" target="td1JjDbZRhZ5KsccJFVq-1">
          <mxGeometry relative="1" as="geometry">
            <Array as="points">
              <mxPoint x="530" y="380" />
              <mxPoint x="530" y="157" />
            </Array>
          </mxGeometry>
        </mxCell>
        <mxCell id="td1JjDbZRhZ5KsccJFVq-8" value="H3C 1" style="rounded=0;whiteSpace=wrap;html=1;movable=1;resizable=1;rotatable=1;deletable=1;editable=1;locked=0;connectable=1;" vertex="1" parent="1">
          <mxGeometry x="565" y="370" width="80" height="40" as="geometry" />
        </mxCell>
        <mxCell id="td1JjDbZRhZ5KsccJFVq-9" value="H3C 2" style="rounded=0;whiteSpace=wrap;html=1;movable=1;resizable=1;rotatable=1;deletable=1;editable=1;locked=0;connectable=1;" vertex="1" parent="1">
          <mxGeometry x="565" y="420" width="80" height="40" as="geometry" />
        </mxCell>
        <mxCell id="td1JjDbZRhZ5KsccJFVq-16" style="edgeStyle=orthogonalEdgeStyle;rounded=0;orthogonalLoop=1;jettySize=auto;html=1;entryX=0.25;entryY=1;entryDx=0;entryDy=0;" edge="1" parent="1" source="td1JjDbZRhZ5KsccJFVq-10" target="td1JjDbZRhZ5KsccJFVq-4">
          <mxGeometry relative="1" as="geometry" />
        </mxCell>
        <mxCell id="td1JjDbZRhZ5KsccJFVq-18" style="edgeStyle=orthogonalEdgeStyle;rounded=0;orthogonalLoop=1;jettySize=auto;html=1;entryX=0.655;entryY=1;entryDx=0;entryDy=0;entryPerimeter=0;" edge="1" parent="1" source="td1JjDbZRhZ5KsccJFVq-10" target="td1JjDbZRhZ5KsccJFVq-4">
          <mxGeometry relative="1" as="geometry">
            <Array as="points">
              <mxPoint x="297" y="590" />
            </Array>
          </mxGeometry>
        </mxCell>
        <mxCell id="td1JjDbZRhZ5KsccJFVq-55" style="edgeStyle=orthogonalEdgeStyle;rounded=0;orthogonalLoop=1;jettySize=auto;html=1;exitX=0.75;exitY=1;exitDx=0;exitDy=0;entryX=0.25;entryY=0;entryDx=0;entryDy=0;" edge="1" parent="1" source="td1JjDbZRhZ5KsccJFVq-10" target="td1JjDbZRhZ5KsccJFVq-43">
          <mxGeometry relative="1" as="geometry" />
        </mxCell>
        <mxCell id="td1JjDbZRhZ5KsccJFVq-56" style="edgeStyle=orthogonalEdgeStyle;rounded=0;orthogonalLoop=1;jettySize=auto;html=1;exitX=1;exitY=0.75;exitDx=0;exitDy=0;" edge="1" parent="1" source="td1JjDbZRhZ5KsccJFVq-10" target="td1JjDbZRhZ5KsccJFVq-43">
          <mxGeometry relative="1" as="geometry" />
        </mxCell>
        <mxCell id="td1JjDbZRhZ5KsccJFVq-57" style="edgeStyle=orthogonalEdgeStyle;rounded=0;orthogonalLoop=1;jettySize=auto;html=1;exitX=1;exitY=0.25;exitDx=0;exitDy=0;entryX=0.75;entryY=0;entryDx=0;entryDy=0;" edge="1" parent="1" source="td1JjDbZRhZ5KsccJFVq-10" target="td1JjDbZRhZ5KsccJFVq-43">
          <mxGeometry relative="1" as="geometry" />
        </mxCell>
        <mxCell id="td1JjDbZRhZ5KsccJFVq-10" value="" style="whiteSpace=wrap;html=1;aspect=fixed;movable=1;resizable=1;rotatable=1;deletable=1;editable=1;locked=0;connectable=1;" vertex="1" parent="1">
          <mxGeometry x="40" y="510" width="140" height="138" as="geometry" />
        </mxCell>
        <mxCell id="td1JjDbZRhZ5KsccJFVq-19" style="edgeStyle=orthogonalEdgeStyle;rounded=0;orthogonalLoop=1;jettySize=auto;html=1;entryX=0.009;entryY=0.118;entryDx=0;entryDy=0;entryPerimeter=0;" edge="1" parent="1" source="td1JjDbZRhZ5KsccJFVq-11" target="td1JjDbZRhZ5KsccJFVq-4">
          <mxGeometry relative="1" as="geometry">
            <Array as="points">
              <mxPoint x="108" y="460" />
              <mxPoint x="193" y="460" />
              <mxPoint x="193" y="373" />
            </Array>
          </mxGeometry>
        </mxCell>
        <mxCell id="td1JjDbZRhZ5KsccJFVq-20" style="edgeStyle=orthogonalEdgeStyle;rounded=0;orthogonalLoop=1;jettySize=auto;html=1;entryX=0;entryY=0.5;entryDx=0;entryDy=0;" edge="1" parent="1" source="td1JjDbZRhZ5KsccJFVq-11" target="td1JjDbZRhZ5KsccJFVq-4">
          <mxGeometry relative="1" as="geometry">
            <Array as="points">
              <mxPoint x="150" y="415" />
            </Array>
          </mxGeometry>
        </mxCell>
        <mxCell id="td1JjDbZRhZ5KsccJFVq-11" value="IBM E 1050" style="rounded=0;whiteSpace=wrap;html=1;movable=1;resizable=1;rotatable=1;deletable=1;editable=1;locked=0;connectable=1;" vertex="1" parent="1">
          <mxGeometry x="55" y="520" width="105" height="48" as="geometry" />
        </mxCell>
        <mxCell id="td1JjDbZRhZ5KsccJFVq-12" value="IBM E 1050" style="rounded=0;whiteSpace=wrap;html=1;movable=1;resizable=1;rotatable=1;deletable=1;editable=1;locked=0;connectable=1;" vertex="1" parent="1">
          <mxGeometry x="55" y="580" width="105" height="48" as="geometry" />
        </mxCell>
        <mxCell id="td1JjDbZRhZ5KsccJFVq-21" style="edgeStyle=orthogonalEdgeStyle;rounded=0;orthogonalLoop=1;jettySize=auto;html=1;entryX=1;entryY=0.25;entryDx=0;entryDy=0;" edge="1" parent="1" source="td1JjDbZRhZ5KsccJFVq-13" target="td1JjDbZRhZ5KsccJFVq-7">
          <mxGeometry relative="1" as="geometry">
            <Array as="points">
              <mxPoint x="730" y="388" />
            </Array>
          </mxGeometry>
        </mxCell>
        <mxCell id="td1JjDbZRhZ5KsccJFVq-13" value="IBM E 1050" style="rounded=0;whiteSpace=wrap;html=1;movable=1;resizable=1;rotatable=1;deletable=1;editable=1;locked=0;connectable=1;" vertex="1" parent="1">
          <mxGeometry x="690" y="502" width="105" height="48" as="geometry" />
        </mxCell>
        <mxCell id="td1JjDbZRhZ5KsccJFVq-32" style="edgeStyle=orthogonalEdgeStyle;rounded=0;orthogonalLoop=1;jettySize=auto;html=1;exitX=0.13;exitY=0.77;exitDx=0;exitDy=0;exitPerimeter=0;entryX=0.318;entryY=-0.027;entryDx=0;entryDy=0;entryPerimeter=0;" edge="1" parent="1" source="td1JjDbZRhZ5KsccJFVq-31" target="td1JjDbZRhZ5KsccJFVq-1">
          <mxGeometry relative="1" as="geometry" />
        </mxCell>
        <mxCell id="td1JjDbZRhZ5KsccJFVq-33" style="edgeStyle=orthogonalEdgeStyle;rounded=0;orthogonalLoop=1;jettySize=auto;html=1;exitX=0.55;exitY=0.95;exitDx=0;exitDy=0;exitPerimeter=0;entryX=0.75;entryY=0;entryDx=0;entryDy=0;" edge="1" parent="1" source="td1JjDbZRhZ5KsccJFVq-31" target="td1JjDbZRhZ5KsccJFVq-1">
          <mxGeometry relative="1" as="geometry" />
        </mxCell>
        <mxCell id="td1JjDbZRhZ5KsccJFVq-31" value="MPLS Network" style="ellipse;shape=cloud;whiteSpace=wrap;html=1;" vertex="1" parent="1">
          <mxGeometry x="440" width="120" height="80" as="geometry" />
        </mxCell>
        <mxCell id="td1JjDbZRhZ5KsccJFVq-36" style="edgeStyle=orthogonalEdgeStyle;rounded=0;orthogonalLoop=1;jettySize=auto;html=1;entryX=0;entryY=0.5;entryDx=0;entryDy=0;" edge="1" parent="1" source="td1JjDbZRhZ5KsccJFVq-34" target="td1JjDbZRhZ5KsccJFVq-35">
          <mxGeometry relative="1" as="geometry" />
        </mxCell>
        <mxCell id="td1JjDbZRhZ5KsccJFVq-34" value="PA" style="whiteSpace=wrap;html=1;aspect=fixed;" vertex="1" parent="1">
          <mxGeometry x="190" y="30" width="40" height="40" as="geometry" />
        </mxCell>
        <mxCell id="td1JjDbZRhZ5KsccJFVq-37" style="edgeStyle=orthogonalEdgeStyle;rounded=0;orthogonalLoop=1;jettySize=auto;html=1;exitX=1;exitY=0.5;exitDx=0;exitDy=0;entryX=0.1;entryY=0.563;entryDx=0;entryDy=0;entryPerimeter=0;" edge="1" parent="1" source="td1JjDbZRhZ5KsccJFVq-35" target="td1JjDbZRhZ5KsccJFVq-31">
          <mxGeometry relative="1" as="geometry" />
        </mxCell>
        <mxCell id="td1JjDbZRhZ5KsccJFVq-35" value="R3" style="ellipse;whiteSpace=wrap;html=1;" vertex="1" parent="1">
          <mxGeometry x="300" y="30" width="55" height="30" as="geometry" />
        </mxCell>
        <mxCell id="td1JjDbZRhZ5KsccJFVq-48" style="edgeStyle=orthogonalEdgeStyle;rounded=0;orthogonalLoop=1;jettySize=auto;html=1;exitX=1;exitY=0.25;exitDx=0;exitDy=0;entryX=0.25;entryY=1;entryDx=0;entryDy=0;" edge="1" parent="1" source="td1JjDbZRhZ5KsccJFVq-38" target="td1JjDbZRhZ5KsccJFVq-43">
          <mxGeometry relative="1" as="geometry" />
        </mxCell>
        <mxCell id="td1JjDbZRhZ5KsccJFVq-38" value="" style="whiteSpace=wrap;html=1;aspect=fixed;movable=1;resizable=1;rotatable=1;deletable=1;editable=1;locked=0;connectable=1;" vertex="1" parent="1">
          <mxGeometry x="50" y="818" width="140" height="138" as="geometry" />
        </mxCell>
        <mxCell id="td1JjDbZRhZ5KsccJFVq-39" value="IBM Flash 1" style="rounded=0;whiteSpace=wrap;html=1;movable=1;resizable=1;rotatable=1;deletable=1;editable=1;locked=0;connectable=1;" vertex="1" parent="1">
          <mxGeometry x="67.5" y="830" width="105" height="48" as="geometry" />
        </mxCell>
        <mxCell id="td1JjDbZRhZ5KsccJFVq-40" value="IBM Flash 2" style="rounded=0;whiteSpace=wrap;html=1;movable=1;resizable=1;rotatable=1;deletable=1;editable=1;locked=0;connectable=1;" vertex="1" parent="1">
          <mxGeometry x="67.5" y="890" width="105" height="48" as="geometry" />
        </mxCell>
        <mxCell id="td1JjDbZRhZ5KsccJFVq-53" style="edgeStyle=orthogonalEdgeStyle;rounded=0;orthogonalLoop=1;jettySize=auto;html=1;entryX=1;entryY=0.25;entryDx=0;entryDy=0;" edge="1" parent="1" source="td1JjDbZRhZ5KsccJFVq-41" target="td1JjDbZRhZ5KsccJFVq-50">
          <mxGeometry relative="1" as="geometry">
            <Array as="points">
              <mxPoint x="730" y="715" />
            </Array>
          </mxGeometry>
        </mxCell>
        <mxCell id="td1JjDbZRhZ5KsccJFVq-54" style="edgeStyle=orthogonalEdgeStyle;rounded=0;orthogonalLoop=1;jettySize=auto;html=1;exitX=0;exitY=0.25;exitDx=0;exitDy=0;entryX=0.75;entryY=1;entryDx=0;entryDy=0;" edge="1" parent="1" source="td1JjDbZRhZ5KsccJFVq-41" target="td1JjDbZRhZ5KsccJFVq-50">
          <mxGeometry relative="1" as="geometry" />
        </mxCell>
        <mxCell id="td1JjDbZRhZ5KsccJFVq-41" value="IBM Flash 3" style="rounded=0;whiteSpace=wrap;html=1;movable=1;resizable=1;rotatable=1;deletable=1;editable=1;locked=0;connectable=1;" vertex="1" parent="1">
          <mxGeometry x="670" y="830" width="105" height="48" as="geometry" />
        </mxCell>
        <mxCell id="td1JjDbZRhZ5KsccJFVq-59" style="edgeStyle=orthogonalEdgeStyle;rounded=0;orthogonalLoop=1;jettySize=auto;html=1;exitX=1;exitY=0.25;exitDx=0;exitDy=0;entryX=1;entryY=0;entryDx=0;entryDy=0;" edge="1" parent="1" source="td1JjDbZRhZ5KsccJFVq-43" target="td1JjDbZRhZ5KsccJFVq-10">
          <mxGeometry relative="1" as="geometry" />
        </mxCell>
        <mxCell id="td1JjDbZRhZ5KsccJFVq-43" value="" style="whiteSpace=wrap;html=1;aspect=fixed;movable=1;resizable=1;rotatable=1;deletable=1;editable=1;locked=0;connectable=1;" vertex="1" parent="1">
          <mxGeometry x="245" y="680" width="140" height="138" as="geometry" />
        </mxCell>
        <mxCell id="td1JjDbZRhZ5KsccJFVq-44" value="SAN Switch" style="rounded=0;whiteSpace=wrap;html=1;movable=1;resizable=1;rotatable=1;deletable=1;editable=1;locked=0;connectable=1;" vertex="1" parent="1">
          <mxGeometry x="262.5" y="690" width="105" height="48" as="geometry" />
        </mxCell>
        <mxCell id="td1JjDbZRhZ5KsccJFVq-45" value="SAN Switch" style="rounded=0;whiteSpace=wrap;html=1;movable=1;resizable=1;rotatable=1;deletable=1;editable=1;locked=0;connectable=1;" vertex="1" parent="1">
          <mxGeometry x="262.5" y="760" width="105" height="48" as="geometry" />
        </mxCell>
        <mxCell id="td1JjDbZRhZ5KsccJFVq-50" value="" style="whiteSpace=wrap;html=1;aspect=fixed;movable=1;resizable=1;rotatable=1;deletable=1;editable=1;locked=0;connectable=1;" vertex="1" parent="1">
          <mxGeometry x="495" y="680" width="140" height="138" as="geometry" />
        </mxCell>
        <mxCell id="td1JjDbZRhZ5KsccJFVq-51" value="SAN Switch" style="rounded=0;whiteSpace=wrap;html=1;movable=1;resizable=1;rotatable=1;deletable=1;editable=1;locked=0;connectable=1;" vertex="1" parent="1">
          <mxGeometry x="512.5" y="690" width="105" height="48" as="geometry" />
        </mxCell>
        <mxCell id="td1JjDbZRhZ5KsccJFVq-52" value="SAN Switch" style="rounded=0;whiteSpace=wrap;html=1;movable=1;resizable=1;rotatable=1;deletable=1;editable=1;locked=0;connectable=1;" vertex="1" parent="1">
          <mxGeometry x="512.5" y="760" width="105" height="48" as="geometry" />
        </mxCell>
        <mxCell id="td1JjDbZRhZ5KsccJFVq-65" value="" style="endArrow=classic;startArrow=classic;html=1;rounded=0;exitX=0.171;exitY=-0.022;exitDx=0;exitDy=0;exitPerimeter=0;" edge="1" parent="1" source="td1JjDbZRhZ5KsccJFVq-50">
          <mxGeometry width="50" height="50" relative="1" as="geometry">
            <mxPoint x="400" y="610" as="sourcePoint" />
            <mxPoint x="690" y="540" as="targetPoint" />
            <Array as="points">
              <mxPoint x="520" y="540" />
            </Array>
          </mxGeometry>
        </mxCell>
        <mxCell id="td1JjDbZRhZ5KsccJFVq-66" value="" style="endArrow=classic;startArrow=classic;html=1;rounded=0;exitX=0.171;exitY=-0.022;exitDx=0;exitDy=0;exitPerimeter=0;entryX=0.25;entryY=1;entryDx=0;entryDy=0;" edge="1" parent="1" target="td1JjDbZRhZ5KsccJFVq-13">
          <mxGeometry width="50" height="50" relative="1" as="geometry">
            <mxPoint x="540" y="680" as="sourcePoint" />
            <mxPoint x="700" y="580" as="targetPoint" />
            <Array as="points">
              <mxPoint x="540" y="580" />
              <mxPoint x="716" y="580" />
            </Array>
          </mxGeometry>
        </mxCell>
        <mxCell id="td1JjDbZRhZ5KsccJFVq-67" value="" style="endArrow=classic;startArrow=classic;html=1;rounded=0;exitX=0.5;exitY=0;exitDx=0;exitDy=0;entryX=0.5;entryY=1;entryDx=0;entryDy=0;" edge="1" parent="1" source="td1JjDbZRhZ5KsccJFVq-50" target="td1JjDbZRhZ5KsccJFVq-13">
          <mxGeometry width="50" height="50" relative="1" as="geometry">
            <mxPoint x="550" y="690" as="sourcePoint" />
            <mxPoint x="726" y="560" as="targetPoint" />
            <Array as="points">
              <mxPoint x="565" y="630" />
              <mxPoint x="565" y="590" />
              <mxPoint x="743" y="590" />
            </Array>
          </mxGeometry>
        </mxCell>
        <mxCell id="td1JjDbZRhZ5KsccJFVq-68" value="" style="endArrow=classic;startArrow=classic;html=1;rounded=0;exitX=0.5;exitY=0;exitDx=0;exitDy=0;entryX=0.5;entryY=1;entryDx=0;entryDy=0;" edge="1" parent="1">
          <mxGeometry width="50" height="50" relative="1" as="geometry">
            <mxPoint x="590" y="680" as="sourcePoint" />
            <mxPoint x="768" y="550" as="targetPoint" />
            <Array as="points">
              <mxPoint x="590" y="630" />
              <mxPoint x="590" y="590" />
              <mxPoint x="768" y="590" />
            </Array>
          </mxGeometry>
        </mxCell>
        <mxCell id="td1JjDbZRhZ5KsccJFVq-69" value="" style="endArrow=classic;startArrow=classic;html=1;rounded=0;exitX=0;exitY=0.25;exitDx=0;exitDy=0;" edge="1" parent="1" source="td1JjDbZRhZ5KsccJFVq-13">
          <mxGeometry width="50" height="50" relative="1" as="geometry">
            <mxPoint x="595" y="520" as="sourcePoint" />
            <mxPoint x="645" y="470" as="targetPoint" />
            <Array as="points">
              <mxPoint x="645" y="514" />
            </Array>
          </mxGeometry>
        </mxCell>
        <mxCell id="td1JjDbZRhZ5KsccJFVq-70" value="Storage" style="rounded=0;whiteSpace=wrap;html=1;" vertex="1" parent="1">
          <mxGeometry x="120" y="1000" width="220" height="60" as="geometry" />
        </mxCell>
        <mxCell id="td1JjDbZRhZ5KsccJFVq-71" value="Storage" style="rounded=0;whiteSpace=wrap;html=1;" vertex="1" parent="1">
          <mxGeometry x="560" y="1000" width="220" height="60" as="geometry" />
        </mxCell>
        <mxCell id="td1JjDbZRhZ5KsccJFVq-74" value="" style="endArrow=classic;startArrow=classic;html=1;rounded=0;entryX=1.014;entryY=0.812;entryDx=0;entryDy=0;entryPerimeter=0;" edge="1" parent="1" target="td1JjDbZRhZ5KsccJFVq-38">
          <mxGeometry width="50" height="50" relative="1" as="geometry">
            <mxPoint x="262.5" y="1000" as="sourcePoint" />
            <mxPoint x="312.5" y="950" as="targetPoint" />
            <Array as="points">
              <mxPoint x="263" y="930" />
            </Array>
          </mxGeometry>
        </mxCell>
        <mxCell id="td1JjDbZRhZ5KsccJFVq-75" value="" style="endArrow=classic;startArrow=classic;html=1;rounded=0;entryX=0.25;entryY=1;entryDx=0;entryDy=0;exitX=0.614;exitY=-0.033;exitDx=0;exitDy=0;exitPerimeter=0;" edge="1" parent="1" source="td1JjDbZRhZ5KsccJFVq-71" target="td1JjDbZRhZ5KsccJFVq-41">
          <mxGeometry width="50" height="50" relative="1" as="geometry">
            <mxPoint x="670" y="1000" as="sourcePoint" />
            <mxPoint x="720" y="950" as="targetPoint" />
          </mxGeometry>
        </mxCell>
        <mxCell id="td1JjDbZRhZ5KsccJFVq-76" value="" style="endArrow=classic;startArrow=classic;html=1;rounded=0;entryX=-0.021;entryY=0.072;entryDx=0;entryDy=0;entryPerimeter=0;" edge="1" parent="1" target="td1JjDbZRhZ5KsccJFVq-43">
          <mxGeometry width="50" height="50" relative="1" as="geometry">
            <mxPoint x="55" y="818" as="sourcePoint" />
            <mxPoint x="105" y="768" as="targetPoint" />
            <Array as="points">
              <mxPoint x="55" y="690" />
            </Array>
          </mxGeometry>
        </mxCell>
        <mxCell id="td1JjDbZRhZ5KsccJFVq-77" value="" style="endArrow=classic;startArrow=classic;html=1;rounded=0;" edge="1" parent="1">
          <mxGeometry width="50" height="50" relative="1" as="geometry">
            <mxPoint x="75.5" y="818" as="sourcePoint" />
            <mxPoint x="240" y="710" as="targetPoint" />
            <Array as="points">
              <mxPoint x="76" y="710" />
              <mxPoint x="120" y="710" />
              <mxPoint x="180" y="710" />
            </Array>
          </mxGeometry>
        </mxCell>
        <mxCell id="td1JjDbZRhZ5KsccJFVq-78" value="" style="endArrow=classic;startArrow=classic;html=1;rounded=0;" edge="1" parent="1">
          <mxGeometry width="50" height="50" relative="1" as="geometry">
            <mxPoint x="100" y="818" as="sourcePoint" />
            <mxPoint x="240" y="740" as="targetPoint" />
            <Array as="points">
              <mxPoint x="100" y="740" />
              <mxPoint x="190" y="740" />
            </Array>
          </mxGeometry>
        </mxCell>
        <mxCell id="td1JjDbZRhZ5KsccJFVq-79" value="" style="endArrow=classic;startArrow=classic;html=1;rounded=0;" edge="1" parent="1">
          <mxGeometry width="50" height="50" relative="1" as="geometry">
            <mxPoint x="122.5" y="818" as="sourcePoint" />
            <mxPoint x="240" y="760" as="targetPoint" />
            <Array as="points">
              <mxPoint x="123" y="760" />
            </Array>
          </mxGeometry>
        </mxCell>
        <mxCell id="td1JjDbZRhZ5KsccJFVq-80" value="" style="endArrow=classic;startArrow=classic;html=1;rounded=0;exitX=1.021;exitY=0.384;exitDx=0;exitDy=0;exitPerimeter=0;" edge="1" parent="1" source="td1JjDbZRhZ5KsccJFVq-38">
          <mxGeometry width="50" height="50" relative="1" as="geometry">
            <mxPoint x="195" y="878" as="sourcePoint" />
            <mxPoint x="300" y="820" as="targetPoint" />
            <Array as="points">
              <mxPoint x="300" y="870" />
            </Array>
          </mxGeometry>
        </mxCell>
        <mxCell id="td1JjDbZRhZ5KsccJFVq-81" value="" style="endArrow=classic;startArrow=classic;html=1;rounded=0;exitX=1.007;exitY=0.558;exitDx=0;exitDy=0;exitPerimeter=0;" edge="1" parent="1" source="td1JjDbZRhZ5KsccJFVq-38">
          <mxGeometry width="50" height="50" relative="1" as="geometry">
            <mxPoint x="190" y="912" as="sourcePoint" />
            <mxPoint x="330" y="820" as="targetPoint" />
            <Array as="points">
              <mxPoint x="330" y="895" />
            </Array>
          </mxGeometry>
        </mxCell>
        <mxCell id="td1JjDbZRhZ5KsccJFVq-82" value="" style="endArrow=classic;startArrow=classic;html=1;rounded=0;exitX=1;exitY=0.75;exitDx=0;exitDy=0;entryX=0.8;entryY=1.022;entryDx=0;entryDy=0;entryPerimeter=0;" edge="1" parent="1" source="td1JjDbZRhZ5KsccJFVq-38" target="td1JjDbZRhZ5KsccJFVq-43">
          <mxGeometry width="50" height="50" relative="1" as="geometry">
            <mxPoint x="201" y="905" as="sourcePoint" />
            <mxPoint x="340" y="830" as="targetPoint" />
            <Array as="points">
              <mxPoint x="357" y="920" />
            </Array>
          </mxGeometry>
        </mxCell>
      </root>
    </mxGraphModel>
  </diagram>
</mxfile>
